<svg width="208" height="57" viewBox="0 0 208 57" fill="none" xmlns="http://www.w3.org/2000/svg">
<path opacity="0.3" d="M1 23C1 10.8497 10.8497 1 23 1H185C197.15 1 207 10.8497 207 23C207 35.1503 197.15 45 185 45H51.3734C48.9137 45 46.7493 46.313 45.2167 48.004C42.272 51.2529 36.9797 55.1631 29.7406 55.8832C30.6239 54.8337 31.707 53.409 32.4454 51.9521C32.82 51.2131 33.1266 50.4259 33.2581 49.647C33.3901 48.8657 33.3554 48.0308 32.9681 47.2667C32.1695 45.691 30.2251 45 27.3721 45H23C10.8497 45 1 35.1503 1 23Z" stroke="white" stroke-width="2"/>
</svg>
