<?xml version="1.0" encoding="utf-8"?>
<!-- Generator: Adobe Illustrator 22.1.0, SVG Export Plug-In . SVG Version: 6.00 Build 0)  -->
<svg version="1.1" id="Слой_1" xmlns="http://www.w3.org/2000/svg" xmlns:xlink="http://www.w3.org/1999/xlink" x="0px" y="0px"
	 viewBox="0 0 819.7 234.5" style="enable-background:new 0 0 819.7 234.5;" xml:space="preserve">
<style type="text/css">
	.st0{fill:#FFFFFF;}
</style>
<g>
	<g>
		<path class="st0" d="M223.1,113.2c-8.7,12.7-19.3,25.6-32.2,38.4c-12.8,12.8-27.4,25.1-43.9,36.6s-34.3,21.5-53.1,29.8
			c-3.8,1.7-7.6,3.2-11.4,4.7l34.1,12.7l91.9-34.2c8.8-3.3,14.8-10.6,15.3-18.6l5-77.9C227,107.4,225.1,110.3,223.1,113.2"/>
		<path class="st0" d="M214.9,12.9C191.5,7.1,154.3,0,111.2,0C81.9,0,49.9,3.2,17.5,12.3c-11,3-18.2,13-17.5,24.2l9.3,146
			c0.5,8,6.5,15.3,15.3,18.6l9.5,3.5c15.4-2.8,29.7-6.4,43-10.7c17.9-5.7,34.3-12.6,49.2-20.3c14.9-7.7,28.9-16.4,42.1-26.1
			c13.1-9.6,25.6-20.3,37.2-31.9c8.3-8.3,16.4-17.2,24.2-26.7l3.3-51.5C233.8,25.8,226.3,15.8,214.9,12.9 M178.6,72.7l-3.5,0.2
			l-6.4-8.1c-5-6.1-12.6-9.2-22.7-9.2h-11.9v99.2c-12.7,9.8-35.1,16.5-35.1,16.5V55.6H87.1c-10.1,0-17.7,3.1-22.7,9.2L58,72.9
			c-0.8-0.1-1.9-0.2-3.3-0.2l-3.5-0.2l1.2-12.9l0.4-4h-0.2l0.8-8.7h26h74.3h26c0.1,1.4,0.3,3.6,0.6,6.6s0.5,5,0.6,6.1
			c0.3,4,0.6,8.3,1,12.9C181,72.5,179.9,72.5,178.6,72.7"/>
		<path class="st0" d="M322.4,90.7V43.3h-5.3c-4.5,0-7.9,1.4-10.1,4.1l-2.9,3.6c-0.4-0.1-0.9-0.1-1.5-0.1l-1.6-0.1l0.6-5.8l0.2-1.8
			h-0.1l0.4-3.9h11.6h33.1h11.6c0.1,0.6,0.2,1.6,0.3,2.9c0.1,1.3,0.2,2.2,0.3,2.7c0.1,1.8,0.3,3.7,0.5,5.8c-0.4,0-0.9,0-1.5,0.1
			l-1.6,0.1l-2.9-3.6c-2.2-2.7-5.6-4.1-10.1-4.1H338v47.4c0,2.4,0.2,3.9,0.7,4.8c0.5,0.8,1.2,1.3,2.2,1.3h0.7v2.8v2.8h-11.5h-11.6
			v-2.8v-2.8h0.7c1,0,1.7-0.4,2.2-1.3C322.1,94.7,322.4,93.1,322.4,90.7"/>
		<path class="st0" d="M421.4,90.7c0,2.4,0.2,3.9,0.7,4.8c0.5,0.8,1.2,1.3,2.2,1.3h0.7v2.8v2.8h-11.5H402v-2.8v-2.8h0.7
			c1,0,1.7-0.4,2.2-1.3c0.5-0.8,0.7-2.4,0.7-4.8V71.3h-21.2v19.5c0,2.4,0.2,3.9,0.7,4.8c0.5,0.8,1.2,1.3,2.2,1.3h0.7v2.8v2.8h-11.5
			H365v-2.8v-2.8h0.7c1,0,1.7-0.4,2.2-1.3c0.5-0.8,0.7-2.4,0.7-4.8V51c0-2.3-0.2-3.9-0.7-4.8c-0.5-0.8-1.2-1.3-2.2-1.3H365v-2.8
			v-2.8h11.6h11.5v2.8V45h-0.7c-1,0-1.7,0.4-2.2,1.3c-0.5,0.8-0.7,2.4-0.7,4.8v16.2h21.2V51c0-2.3-0.2-3.9-0.7-4.8
			c-0.5-0.8-1.2-1.3-2.2-1.3H402v-2.8v-2.8h11.6h11.5v2.8V45h-0.7c-1,0-1.7,0.4-2.2,1.3c-0.5,0.8-0.7,2.4-0.7,4.8L421.4,90.7
			L421.4,90.7z"/>
		<path class="st0" d="M439.1,93.7c-5.7-6.1-8.5-13.7-8.5-22.8s2.8-16.7,8.5-22.8C444.8,42,452.7,39,463,39c10.2,0,18.2,3,23.8,9.1
			c5.7,6.1,8.5,13.7,8.5,22.8s-2.8,16.7-8.5,22.8c-5.7,6.1-13.6,9.1-23.8,9.1C452.7,102.8,444.8,99.8,439.1,93.7 M463.2,98.9
			c4.8,0,8.5-2.7,11.1-8c2.6-5.4,3.9-12,3.9-20s-1.3-14.6-3.9-20c-2.6-5.3-6.3-8-11.1-8c-4.8,0-8.6,2.7-11.2,8s-3.9,12-3.9,20
			s1.3,14.6,3.9,20C454.6,96.2,458.4,98.9,463.2,98.9"/>
		<path class="st0" d="M574.3,90.7c0.1,2.4,0.4,3.9,0.9,4.8c0.5,0.8,1.2,1.3,2,1.3h0.7v2.8v2.8h-11.6h-11.6v-2.8v-2.8h0.7
			c1.1,0,1.9-0.4,2.4-1.2c0.5-0.8,0.7-2.4,0.6-4.8l-1.7-31.5l-20.4,43.6h-3.9l-3.2-6.8l-17.8-36.9l-1.9,31.6c-0.1,2.4,0.1,4,0.6,4.8
			s1.3,1.2,2.4,1.2h0.7v2.8v2.8h-6.1h-6v-2.8v-2.8h0.7c0.9,0,1.5-0.4,2-1.3c0.5-0.8,0.8-2.4,0.9-4.8L507,51c0.1-2.4-0.1-4-0.6-4.8
			S505.1,45,504,45h-0.7v-2.8v-2.8h4.5h4.5h6.8L540,84.5l0.3,0.6l-7.7,17.6l27.9-63.4h5.6h2.1h3.3h4.4v2.8V45h-0.7
			c-1.1,0-1.9,0.4-2.4,1.2s-0.7,2.4-0.6,4.8L574.3,90.7z"/>
		<path class="st0" d="M603.1,39.4H614c8.2,0,14.9,1.6,19.9,4.8s7.6,7.4,7.6,12.6c0,5.3-2.7,9.6-8.2,12.9
			c-5.4,3.3-12.6,4.9-21.5,4.9h-8.7v16.1c0,2.4,0.2,3.9,0.7,4.8c0.5,0.8,1.2,1.3,2.2,1.3h0.7v2.8v2.8h-11.6h-11.5v-2.8v-2.8h0.7
			c1,0,1.7-0.4,2.2-1.3c0.5-0.8,0.7-2.4,0.7-4.8V51c0-2.3-0.2-3.9-0.7-4.8c-0.5-0.8-1.2-1.3-2.2-1.3h-0.7v-2.8v-2.8h9.6L603.1,39.4
			L603.1,39.4z M603.1,43.3V51v19.7h8.7c4,0,7.1-1.3,9.6-3.8c2.4-2.6,3.6-5.9,3.6-10.1c0-4-1-7.3-3-9.7c-2-2.5-4.7-3.7-7.9-3.7
			L603.1,43.3L603.1,43.3z"/>
		<path class="st0" d="M661.4,102.5c-2.8,0-6.3-1.1-10.7-3.3c-1.1-0.6-1.9-1.1-2.3-1.4v-5.5v-0.6v-0.6h2.8h2.8v1.7
			c0,1.1,1.1,2.2,3.4,3.4c2.3,1.2,5,2.1,8.3,2.6c3.5,0,6.3-0.9,8.4-2.6c2.1-1.7,3.2-3.9,3.2-6.7c0-2.2-1.4-4.5-4.3-6.9
			c-2.8-2.4-6.6-4.4-11.3-6c-4.3-1.5-7.8-3.9-10.5-7.1s-4-6.6-4-10.3c0-6.1,2.1-11.1,6.2-14.8c4.1-3.7,9.6-5.6,16.3-5.6
			c4,0,8.3,1.3,12.8,3.8c0.5,0.4,0.9,0.6,1.1,0.7v3V49v0.5h-2.8H678V48c0-1.2-0.8-2.4-2.4-3.4c-2.7-1.2-4.9-1.8-6.6-1.8
			c-3.3,0-6,1-8,2.9s-3,4.4-3,7.5c0,1.7,1.5,3.6,4.4,5.7c2.9,2.1,6.7,3.9,11.5,5.6c4.4,1.6,7.9,4.1,10.5,7.5s3.9,7.1,3.9,11.2
			c0,5.9-2.1,10.6-6.3,14.2s-9.7,5.4-16.5,5.4C664.3,102.8,662.8,102.7,661.4,102.5"/>
		<path class="st0" d="M702.4,93.7c-5.7-6.1-8.5-13.7-8.5-22.8s2.8-16.7,8.5-22.8C708.1,42,716,39,726.3,39c10.2,0,18.2,3,23.8,9.1
			c5.7,6.1,8.5,13.7,8.5,22.8s-2.8,16.7-8.5,22.8c-5.7,6.1-13.6,9.1-23.8,9.1C716,102.8,708.1,99.8,702.4,93.7 M726.5,98.9
			c4.8,0,8.5-2.7,11.1-8c2.6-5.4,3.9-12,3.9-20s-1.3-14.6-3.9-20c-2.6-5.3-6.3-8-11.1-8s-8.6,2.7-11.2,8c-2.6,5.3-3.9,12-3.9,20
			s1.3,14.6,3.9,20C717.9,96.2,721.7,98.9,726.5,98.9"/>
		<path class="st0" d="M811,51c0-2.3-0.2-3.9-0.7-4.8c-0.5-0.8-1.2-1.3-2.2-1.3h-0.7v-2.8v-2.8h6h6.1v2.8V45h-0.7
			c-1,0-1.7,0.4-2.2,1.3c-0.5,0.8-0.7,2.4-0.7,4.8v39.2v13.9h-6l-5.8-8.2L773,53.3v37.5c0,2.4,0.2,3.9,0.7,4.8
			c0.5,0.8,1.2,1.3,2.2,1.3h0.7v2.8v2.8h-6h-6.1v-2.8v-2.8h0.7c1,0,1.7-0.4,2.2-1.3c0.5-0.8,0.7-2.4,0.7-4.8V51
			c0-2.3-0.2-3.9-0.7-4.8c-0.5-0.8-1.2-1.3-2.2-1.3h-0.7v-2.8v-2.8h4.3h4.2h9.4L811,79.6V51z"/>
		<path class="st0" d="M315.2,205.5c-2.8,0-6.3-1.1-10.7-3.3c-1.1-0.6-1.9-1.1-2.3-1.4v-5.5v-0.6v-0.6h2.8h2.8v1.7
			c0,1.1,1.1,2.2,3.4,3.4s5,2.1,8.3,2.6c3.5,0,6.3-0.9,8.4-2.6c2.1-1.7,3.2-3.9,3.2-6.7c0-2.2-1.4-4.5-4.3-6.9
			c-2.8-2.4-6.6-4.4-11.3-6c-4.3-1.5-7.8-3.9-10.5-7.1c-2.7-3.2-4-6.6-4-10.3c0-6.1,2.1-11.1,6.2-14.8s9.6-5.6,16.3-5.6
			c4,0,8.3,1.3,12.8,3.8c0.5,0.4,0.9,0.6,1.1,0.7v3v2.5v0.5h-2.8h-2.8V151c0-1.2-0.8-2.4-2.4-3.4c-2.7-1.2-4.9-1.8-6.6-1.8
			c-3.3,0-6,1-8,2.9s-3,4.4-3,7.5c0,1.7,1.5,3.6,4.4,5.7c2.9,2.1,6.7,3.9,11.5,5.6c4.4,1.6,7.9,4.1,10.5,7.5s3.9,7.1,3.9,11.2
			c0,5.9-2.1,10.6-6.3,14.2c-4.2,3.6-9.7,5.4-16.5,5.4C318.1,205.8,316.7,205.7,315.2,205.5"/>
		<path class="st0" d="M390.9,201.6c2-0.4,4.3-1.7,6.9-3.7c2.5-2,4.5-4,5.8-5.9l0.9-1.3h3.2h3.2v4.4v4.4c-1.5,1.1-3.7,2.1-6.5,3.2
			c-2.8,1.1-5.4,1.7-7.5,2c-3.5,0.7-6.8,1.1-9.9,1.1c-11.7,0-21.1-2.9-28.3-8.8c-7.1-5.8-10.7-13.6-10.7-23.1
			c0-9.6,3.6-17.3,10.7-23.1s16.6-8.8,28.3-8.8c3.2,0,6.5,0.4,9.9,1.1c2.5,0.2,6.1,1.4,10.6,3.4c1.3,0.6,2.4,1.2,3.4,1.8v4.4v4.4
			h-3.2h-3.2l-0.9-1.4c-1.2-1.9-3.1-3.8-5.5-5.7s-4.7-3.2-6.7-3.8c-1.5-0.2-3-0.3-4.5-0.3c-6.5,0-11.7,2.6-15.7,7.7
			c-4,5.1-5.9,11.9-5.9,20.3c0,8.4,2,15.2,5.9,20.3c4,5.1,9.2,7.7,15.7,7.7C388.1,201.9,389.5,201.8,390.9,201.6L390.9,201.6z"/>
		<path class="st0" d="M472.8,193.7c0,2.4,0.2,3.9,0.7,4.8c0.5,0.8,1.2,1.3,2.2,1.3h0.7v2.8v2.8H465h-11.6v-2.8v-2.8h0.7
			c1,0,1.7-0.4,2.2-1.3c0.5-0.8,0.7-2.4,0.7-4.8v-19.5h-21.2v19.5c0,2.4,0.2,3.9,0.7,4.8c0.5,0.8,1.2,1.3,2.2,1.3h0.7v2.8v2.8H428
			h-11.6v-2.8v-2.8h0.7c1,0,1.7-0.4,2.2-1.3c0.5-0.8,0.7-2.4,0.7-4.8V154c0-2.3-0.2-3.9-0.7-4.8c-0.5-0.8-1.2-1.3-2.2-1.3h-0.7v-2.8
			v-2.8H428h11.5v2.8v2.8h-0.7c-1,0-1.7,0.4-2.2,1.3c-0.5,0.8-0.7,2.4-0.7,4.8v16.2h21.2V154c0-2.3-0.2-3.9-0.7-4.8
			c-0.5-0.8-1.2-1.3-2.2-1.3h-0.7v-2.8v-2.8H465h11.5v2.8v2.8h-0.7c-1,0-1.7,0.4-2.2,1.3c-0.5,0.8-0.7,2.4-0.7,4.8L472.8,193.7
			L472.8,193.7z"/>
		<path class="st0" d="M490.5,196.7c-5.7-6.1-8.5-13.7-8.5-22.8s2.8-16.7,8.5-22.8s13.7-9.1,23.9-9.1s18.2,3,23.8,9.1
			c5.7,6.1,8.5,13.7,8.5,22.8s-2.8,16.7-8.5,22.8s-13.6,9.1-23.8,9.1C504.1,205.8,496.2,202.8,490.5,196.7 M514.6,201.9
			c4.8,0,8.5-2.7,11.1-8c2.6-5.4,3.9-12,3.9-20s-1.3-14.6-3.9-20c-2.6-5.3-6.3-8-11.1-8s-8.6,2.7-11.2,8s-3.9,12-3.9,20
			s1.3,14.6,3.9,20C506,199.2,509.8,201.9,514.6,201.9"/>
		<path class="st0" d="M561,196.7c-5.7-6.1-8.5-13.7-8.5-22.8s2.8-16.7,8.5-22.8s13.7-9.1,23.9-9.1s18.2,3,23.8,9.1
			c5.7,6.1,8.5,13.7,8.5,22.8s-2.8,16.7-8.5,22.8s-13.6,9.1-23.8,9.1C574.6,205.8,566.7,202.8,561,196.7 M585.1,201.9
			c4.8,0,8.5-2.7,11.1-8c2.6-5.4,3.9-12,3.9-20s-1.3-14.6-3.9-20c-2.6-5.3-6.3-8-11.1-8s-8.6,2.7-11.2,8c-2.6,5.3-3.9,12-3.9,20
			s1.3,14.6,3.9,20C576.6,199.2,580.3,201.9,585.1,201.9"/>
		<path class="st0" d="M651.9,205.3h-9.4h-9.6h-9.7v-2.8v-2.8h0.7c1,0,1.7-0.4,2.2-1.3c0.5-0.8,0.7-2.4,0.7-4.8V154
			c0-2.3-0.2-3.9-0.7-4.8c-0.5-0.8-1.2-1.3-2.2-1.3h-0.7v-2.8v-2.8h11.6h11.5v2.8v2.8h-0.7c-1,0-1.7,0.4-2.2,1.3
			c-0.5,0.8-0.7,2.4-0.7,4.8v39.7c0,5.1,0.8,7.7,2.3,7.7h7.9c3.6,0,6.4-0.4,8.3-1.1c1.9-0.7,3.6-1.9,4.9-3.4l3.4-3.8
			c0.4,0.1,0.9,0.1,1.5,0.2l1.6,0.1c-0.1,0.6-0.3,1.5-0.6,3c-0.3,1.4-0.5,2.4-0.6,3c-0.1,0.7-0.4,1.7-0.7,3.2s-0.5,2.4-0.6,2.8
			L651.9,205.3L651.9,205.3z"/>
	</g>
</g>
</svg>
